<!DOCTYPE svg PUBLIC "-//W3C//DTD SVG 1.1//EN" "http://www.w3.org/Graphics/SVG/1.1/DTD/svg11.dtd">
<!-- Uploaded to: SVG Repo, www.svgrepo.com, Transformed by: SVG Repo Mixer Tools -->
<svg fill="#000000" width="256px" height="256px" viewBox="0 0 36.00 36.00" version="1.1" preserveAspectRatio="xMidYMid meet" xmlns="http://www.w3.org/2000/svg" xmlns:xlink="http://www.w3.org/1999/xlink" stroke="#000000" stroke-width="0.00036">
<g id="SVGRepo_bgCarrier" stroke-width="0"/>
<g id="SVGRepo_tracerCarrier" stroke-linecap="round" stroke-linejoin="round" stroke="#CCCCCC" stroke-width="0.43200000000000005"/>
<g id="SVGRepo_iconCarrier"> <title>plus-circle-solid</title> <path d="M34,18A16,16,0,1,1,18,2,16,16,0,0,1,34,18Zm-8.41-1.5H19.5V10.41a1.5,1.5,0,0,0-3,0V16.5H10.41a1.5,1.5,0,0,0,0,3H16.5v6.09a1.5,1.5,0,0,0,3,0V19.5h6.09a1.5,1.5,0,0,0,0-3Z" class="clr-i-solid clr-i-solid-path-1"/> <rect x="0" y="0" width="36" height="36" fill-opacity="0"/> </g>
</svg>